#!OML:ASF G:\JayActor3\Patient Classification 1\Patient 1\Session 6\male.ASF
:FULLY-SPECIFIED
:DEGREES
1834
root 3.67355 16.2184 -23.135 173.971 -47.5919 -175.27
lowerback 6.37847 0.825323 3.3845
upperback -4.84024 1.25361 -1.62973
thorax -8.59563 0.31829 -3.79896
lowerneck 7.92232 -4.34723 -0.930939
upperneck -36.9675 -9.80927 0.822291
head -13.7953 -5.22724 2.05873
rclavicle 8.84592e-015 3.97569e-015
rhumerus 24.6896 -22.2242 0.253513
rradius 128.218
rwrist -57.167
rhand -23.1779 -1.78303
rfingers 7.12502
rthumb 3.27132 -31.7377
lclavicle 8.84592e-015 3.97569e-015
lhumerus -45.0539 -8.8977 76.1053
lradius 28.6944
lwrist 22.1518
lhand -9.04893 9.09048
lfingers 7.12502
lthumb 16.8993 38.3752
rfemur -6.18143 -2.98577 17.5377
rtibia 34.0324
rfoot -25.327 -13.2271
rtoes 0.619455
lfemur -1.39494 11.2179 -6.91307
ltibia 23.1319
lfoot -15.6143 9.89049
ltoes -2.55685
1835
root 3.67669 16.2189 -23.132 173.919 -47.6205 -175.211
lowerback 6.41238 0.822945 3.41887
upperback -4.8671 1.25426 -1.6328
thorax -8.64431 0.314357 -3.82328
lowerneck 7.91726 -4.35484 -0.928428
upperneck -37.1039 -9.86585 0.81303
head -13.8577 -5.25392 2.0702
rclavicle 1.07344e-013 8.74653e-015
rhumerus 24.6688 -22.4083 0.270228
rradius 128.213
rwrist -57.0635
rhand -23.1553 -1.7643
rfingers 7.12502
rthumb 3.29311 -31.7186
lclavicle 1.07344e-013 8.74653e-015
lhumerus -45.0784 -8.86639 76.0789
lradius 28.7239
lwrist 22.2177
lhand -9.06026 9.12089
lfingers 7.12502
lthumb 16.8884 38.4066
rfemur -6.16572 -3.0164 17.577
rtibia 33.9984
rfoot -25.3068 -13.2408
rtoes 0.624929
lfemur -1.42605 11.1918 -6.87785
ltibia 23.1554
lfoot -15.6025 9.88364
ltoes -2.50268
1836
root 3.67979 16.2195 -23.1292 173.877 -47.6427 -175.164
lowerback 6.44498 0.823059 3.44518
upperback -4.89537 1.25715 -1.63786
thorax -8.69366 0.311829 -3.84545
lowerneck 7.90625 -4.36789 -0.92503
upperneck -37.2271 -9.92848 0.801831
head -13.9131 -5.28304 2.08054
rclavicle 3.10104e-014 1.03368e-014
rhumerus 24.6526 -22.5809 0.281285
rradius 128.21
rwrist -56.9565
rhand -23.1421 -1.75647
rfingers 7.12502
rthumb 3.30583 -31.7106
lclavicle 3.10104e-014 1.03368e-014
lhumerus -45.0961 -8.81802 76.0335
lradius 28.7523
lwrist 22.3002
lhand -9.0043 9.18022
lfingers 7.12502
lthumb 16.9423 38.4613
rfemur -6.15394 -3.03665 17.6095
rtibia 33.9695
rfoot -25.2898 -13.2554
rtoes 0.635579
lfemur -1.45126 11.1729 -6.84924
ltibia 23.1717
lfoot -15.5884 9.87486
ltoes -2.44365
1837
root 3.68279 16.22 -23.1268 173.849 -47.6584 -175.137
lowerback 6.47472 0.825621 3.45735
upperback -4.92405 1.26143 -1.64595
thorax -8.74179 0.310698 -3.86299
lowerneck 7.89004 -4.38422 -0.923891
upperneck -37.339 -9.99324 0.793023
head -13.962 -5.31305 2.09157
rclavicle 1.54058e-014 -1.35174e-014
rhumerus 24.6395 -22.7435 0.288213
rradius 128.209
rwrist -56.8432
rhand -23.1422 -1.74529
rfingers 7.12502
rthumb 3.30577 -31.6994
lclavicle 1.54058e-014 -1.35174e-014
lhumerus -45.1076 -8.75529 75.9727
lradius 28.777
lwrist 22.3901
lhand -8.89378 9.25297
lfingers 7.12502
lthumb 17.0487 38.5249
rfemur -6.14628 -3.04031 17.6309
rtibia 33.9474
rfoot -25.2826 -13.268
rtoes 0.665352
lfemur -1.46781 11.1575 -6.83304
ltibia 23.1769
lfoot -15.5726 9.86719
ltoes -2.37054
1838
root 3.68578 16.2207 -23.1247 173.842 -47.6696 -175.134
lowerback 6.49747 0.829542 3.4516
upperback -4.95058 1.265 -1.65839
thorax -8.78369 0.310337 -3.8747
lowerneck 7.86523 -4.40257 -0.919505
upperneck -37.4426 -10.0597 0.782899
head -14.0056 -5.34431 2.10091
rclavicle 2.3556e-014 -1.27222e-014
rhumerus 24.6332 -22.9011 0.286585
rradius 128.209
rwrist -56.721
rhand -23.1636 -1.73211
rfingers 7.12502
rthumb 3.2851 -31.6865
lclavicle 2.3556e-014 -1.27222e-014
lhumerus -45.1134 -8.68986 75.9064
lradius 28.7953
lwrist 22.4599
lhand -8.75737 9.32463
lfingers 7.12502
lthumb 17.18 38.5851
rfemur -6.14552 -3.0262 17.6383
rtibia 33.9323
rfoot -25.284 -13.2838
rtoes 0.707426
lfemur -1.4782 11.145 -6.83359
ltibia 23.1692
lfoot -15.5548 9.85927
ltoes -2.28239
1839
root 3.68886 16.2215 -23.1228 173.85 -47.6769 -175.145
lowerback 6.51367 0.83494 3.43524
upperback -4.97798 1.2689 -1.673
thorax -8.82277 0.310716 -3.88262
lowerneck 7.84022 -4.42195 -0.908043
upperneck -37.5456 -10.1288 0.766664
head -14.0499 -5.37688 2.10703
rclavicle 9.76033e-014 2.62396e-014
rhumerus 24.6325 -23.0513 0.277126
rradius 128.209
rwrist -56.5856
rhand -23.203 -1.71417
rfingers 7.12502
rthumb 3.24704 -31.6692
lclavicle 9.76033e-014 2.62396e-014
lhumerus -45.1211 -8.63095 75.8451
lradius 28.8081
lwrist 22.4997
lhand -8.63337 9.37802
lfingers 7.12502
lthumb 17.2993 38.6281
rfemur -6.15397 -2.99634 17.6407
rtibia 33.9223
rfoot -25.2917 -13.3057
rtoes 0.748363
lfemur -1.4871 11.1344 -6.84347
ltibia 23.1503
lfoot -15.5341 9.85324
ltoes -2.18317
1840
root 3.69202 16.2225 -23.121 173.867 -47.684 -175.162
lowerback 6.52325 0.840078 3.41458
upperback -5.00599 1.27153 -1.689
thorax -8.85878 0.310723 -3.88924
lowerneck 7.81859 -4.4398 -0.889225
upperneck -37.6481 -10.1976 0.740709
head -14.0962 -5.40892 2.10828
rclavicle -4.37326e-015 -1.43125e-014
rhumerus 24.6367 -23.1978 0.263168
rradius 128.209
rwrist -56.4462
rhand -23.2386 -1.70192
rfingers 7.12502
rthumb 3.21269 -31.6575
lclavicle -4.37326e-015 -1.43125e-014
lhumerus -45.1383 -8.58821 75.7986
lradius 28.8164
lwrist 22.5057
lhand -8.60368 9.36888
lfingers 7.12502
lthumb 17.3279 38.6164
rfemur -6.16789 -2.95573 17.6413
rtibia 33.9152
rfoot -25.3086 -13.3306
rtoes 0.797845
lfemur -1.49591 11.1238 -6.8589
ltibia 23.1229
lfoot -15.5085 9.85193
ltoes -2.09445
1841
root 3.69522 16.2235 -23.1193 173.884 -47.693 -175.176
lowerback 6.52644 0.843561 3.39889
upperback -5.03469 1.27223 -1.70433
thorax -8.89191 0.309537 -3.89754
lowerneck 7.80248 -4.45354 -0.863134
upperneck -37.7538 -10.2646 0.701804
head -14.1469 -5.43925 2.10353
rclavicle -3.3197e-014 5.56597e-015
rhumerus 24.6514 -23.3368 0.241909
rradius 128.206
rwrist -56.2917
rhand -23.2789 -1.6718
rfingers 7.12502
rthumb 3.17377 -31.6279
lclavicle -3.3197e-014 5.56597e-015
lhumerus -45.168 -8.56405 75.7714
lradius 28.8228
lwrist 22.4794
lhand -8.67646 9.32176
lfingers 7.12502
lthumb 17.2579 38.5755
rfemur -6.18468 -2.9155 17.645
rtibia 33.9086
rfoot -25.33 -13.3527
rtoes 0.847565
lfemur -1.50615 11.1113 -6.87306
ltibia 23.0912
lfoot -15.4821 9.85527
ltoes -2.01953
1842
root 3.69832 16.2244 -23.1176 173.902 -47.7057 -175.189
lowerback 6.52537 0.845262 3.38749
upperback -5.06377 1.27077 -1.7198
thorax -8.9231 0.307048 -3.908
lowerneck 7.79237 -4.46136 -0.832432
upperneck -37.8581 -10.3257 0.650213
head -14.2 -5.46572 2.09251
rclavicle 1.07741e-013 2.94201e-014
rhumerus 24.6762 -23.4708 0.214035
rradius 128.198
rwrist -56.1357
rhand -23.2892 -1.64889
rfingers 7.12502
rthumb 3.16383 -31.6052
lclavicle 1.07741e-013 2.94201e-014
lhumerus -45.2097 -8.55556 75.7618
lradius 28.8263
lwrist 22.433
lhand -8.83112 9.23968
lfingers 7.12502
lthumb 17.109 38.5064
rfemur -6.1995 -2.88337 17.646
rtibia 33.9013
rfoot -25.3524 -13.3659
rtoes 0.908089
lfemur -1.51641 11.0947 -6.88936
ltibia 23.0585
lfoot -15.4575 9.86337
ltoes -1.9597
1843
root 3.70121 16.2253 -23.1157 173.917 -47.7203 -175.201
lowerback 6.52132 0.845464 3.38421
upperback -5.09227 1.26805 -1.73543
thorax -8.95192 0.303494 -3.92297
lowerneck 7.78545 -4.465 -0.804523
upperneck -37.9562 -10.3812 0.593176
head -14.2513 -5.4884 2.07885
rclavicle -7.61345e-014 -1.59028e-015
rhumerus 24.7137 -23.5992 0.176643
rradius 128.184
rwrist -55.9745
rhand -23.2945 -1.60643
rfingers 7.12502
rthumb 3.15868 -31.5628
lclavicle -7.61345e-014 -1.59028e-015
lhumerus -45.258 -8.55308 75.7604
lradius 28.8283
lwrist 22.3901
lhand -9.02079 9.14799
lfingers 7.12502
lthumb 16.9264 38.4304
rfemur -6.21107 -2.86339 17.6438
rtibia 33.893
rfoot -25.3738 -13.3641
rtoes 0.981087
lfemur -1.5255 11.0742 -6.90601
ltibia 23.0283
lfoot -15.4389 9.87519
ltoes -1.90015
1844
root 3.70387 16.2259 -23.1136 173.93 -47.7358 -175.21
lowerback 6.51434 0.843863 3.39028
upperback -5.11873 1.26387 -1.75084
thorax -8.97681 0.298811 -3.94267
lowerneck 7.77525 -4.46346 -0.795752
upperneck -38.0393 -10.424 0.548222
head -14.2929 -5.50437 2.07027
rclavicle -1.78906e-014 3.57812e-014
rhumerus 24.7647 -23.7233 0.127743
rradius 128.165
rwrist -55.8139
rhand -23.2716 -1.57645
rfingers 7.12502
rthumb 3.18085 -31.5325
lclavicle -1.78906e-014 3.57812e-014
lhumerus -45.3015 -8.54709 75.7589
lradius 28.8208
lwrist 22.3548
lhand -9.18841 9.06714
lfingers 7.12502
lthumb 16.7651 38.3633
rfemur -6.22153 -2.85731 17.6393
rtibia 33.8843
rfoot -25.3849 -13.3558
rtoes 1.03297
lfemur -1.53493 11.0511 -6.92189
ltibia 23.0018
lfoot -15.4254 9.88984
ltoes -1.85186
